Release info:

General

Format                                   : Matroska
Format version                           : Version 2
File size                                : 699 MiB
Duration                                 : 1h 27mn
Overall bit rate                         : 1 111 Kbps


Video
ID                                       : 1
Format                                   : MPEG-4 Visual
Format profile                           : Advanced Simple@L5
Format settings, BVOP                    : Yes
Format settings, QPel                    : No
Format settings, GMC                     : No warppoints
Format settings, Matrix                  : Default (H.263)
Codec ID                                 : V_MS/VFW/FOURCC / XVID
Codec ID/Hint                            : XviD
Duration                                 : 1h 27mn
Bit rate                                 : 961 Kbps
Width                                    : 656 pixels
Height                                   : 368 pixels
Display aspect ratio                     : 16:9
Frame rate mode                          : Constant
Frame rate                               : 23.976 fps
Color space                              : YUV
Chroma subsampling                       : 4:2:0
Bit depth                                : 8 bits
Scan type                                : Progressive
Compression mode                         : Lossy
Bits/(Pixel*Frame)                       : 0.166
Stream size                              : 604 MiB (86%)
Writing library                          : XviD 1.2.1 (UTC 2008-12-04)
Language                                 : English
Default                                  : Yes
Forced                                   : No

Audio
ID                                       : 2
Format                                   : MPEG Audio
Format version                           : Version 1
Format profile                           : Layer 3
Mode                                     : Joint stereo
Mode extension                           : MS Stereo
Muxing mode                              : Header stripping
Codec ID                                 : A_MPEG/L3
Codec ID/Hint                            : MP3
Duration                                 : 1h 27mn
Bit rate mode                            : Constant
Bit rate                                 : 128 Kbps
Channel(s)                               : 2 channels
Sampling rate                            : 44.1 KHz
Compression mode                         : Lossy
Stream size                              : 80.5 MiB (12%)
Writing library                          : LAME3.98.2
Language                                 : English
Default                                  : Yes
Forced                                   : No

Source:
credit to original movie ripper S4A (Thanks)

IMDB Info:

Finn Baxter and his family move from California to Maine to their new house. Finn is terrified and believes the house is haunted... 

Director: Peter Hewitt
Writers: Aaron Ginsburg, Wade McIntyre
Stars: Edward Asner, Jodelle Ferland and Malcolm McDowell 

Genres: Comedy | Crime | Family | Fantasy
 
http://www.imdb.com/title/tt2308733/

Screen Shot:
 
http://www.shotpix.com/images/90110629056479572877.png 
http://www.shotpix.com/images/25160239841011092102.png 
http://www.shotpix.com/images/22706722127275080606.png 
http://www.shotpix.com/images/30376101861308053850.png 
http://www.shotpix.com/images/69606012079102462058.png 
http://www.shotpix.com/images/07897321518637269765.png